# xmcd
#
# Track frame offsets:
#	150
#	6229
#	8971
#	23371
#	55579
#	73611
#	105081
#	176548
#	179388
#
# Disc length: 3023 seconds
#
# Revision: 1
# Processed by: cddbd v1.5.2PL0 Copyright (c) Steve Scherf et al.
# Submitted via: audiograbber 1.83.01
#
DISCID=5d0bcd09
DTITLE=Grateful Dead - 95-03-29 The Omni, Atlanta GA
DYEAR=1900
DGENRE=
TTITLE0=Stage Banter
TTITLE1=Stage Banter 2
TTITLE2=Stage Banter 3
TTITLE3=Unbroken Chain
TTITLE4=Help On The Way
TTITLE5=Slipknot!
TTITLE6=Franklin's Tower
TTITLE7=Jam
TTITLE8=Standing On The Moon
EXTD=
EXTT0=
EXTT1=
EXTT2=
EXTT3=
EXTT4=
EXTT5=
EXTT6=
EXTT7=
EXTT8=
PLAYORDER=
